# xmcd
#
# Track frame offsets:
#	150
#	900
#	19766
#	36665
#	53232
#	74029
#	90028
#	108288
#	126798
#	139811
#	158208
#	177185
#	194240
#	210721
#	225528
#	241866
#	258616
#	276500
#	288630
#
# Disc length: 4060 seconds
#
# Revision: 3
# Processed by: cddbd v1.5.1PL2 Copyright (c) Steve Scherf et al.
# Submitted via: dBpowerAMP V4.0
#
DISCID=190fda13
DTITLE=Various Artist - Top Hits USA 11/3/00 T561
DYEAR=2000
DGENRE=Top 40
TTITLE0=A - N
TTITLE1=Bon Jovi - Thank You For Loving Me (Radio Edit)
TTITLE2=Dido - Thankyou
TTITLE3=Janis Ian - On The Other Side (Radio Single)
TTITLE4=Rachel Lampa - Always Be My Home (Radio Edit)
TTITLE5=Natalie Cole - Livin' For Love
TTITLE6=No Doubt - Bathwater
TTITLE7=Jamie Hawkins - Lost My Mind (Radio Edit)
TTITLE8=Green Day - Minority (Radio Version)
TTITLE9=Outkast - Ms. Jackson (Radio Mix)
TTITLE10=Richard Ashcroft - C'mon People
TTITLE11=Kernkraft 400 - Zombie Nation (WKTU Radio Edit)
TTITLE12=Gabrielle - Rise (Single Version)
TTITLE13=Alabama - When It All Goes South (Single Version)
TTITLE14=Jessica Andrews - Who I Am (Radio Edit)
TTITLE15=McAlyster - I Know How The River Feels
TTITLE16=Chalee Tennison - Go Back
TTITLE17=Eric Heatherly - Wrong Five O'Clock
TTITLE18=Boney James - All Night Long (Edit)
EXTD=
EXTT0=
EXTT1=
EXTT2=
EXTT3=
EXTT4=
EXTT5=
EXTT6=
EXTT7=
EXTT8=
EXTT9=
EXTT10=
EXTT11=
EXTT12=
EXTT13=
EXTT14=
EXTT15=
EXTT16=
EXTT17=
EXTT18=
PLAYORDER=
